<svg id="Layer_1" data-name="Layer 1" xmlns="http://www.w3.org/2000/svg" viewBox="0 0 816 348"><defs><style>.cls-1{fill:#377dff;}</style></defs><path class="cls-1" d="M14.47,337.59V295l81.39-67.33A186.3,186.3,0,0,0,109.76,215a48.24,48.24,0,0,0,8.95-12.2,30.69,30.69,0,0,0,3.14-13.95,27.58,27.58,0,0,0-3.56-14.38,24.22,24.22,0,0,0-9.86-9.22A31.19,31.19,0,0,0,93.94,162a30.36,30.36,0,0,0-14.43,3.3,22.9,22.9,0,0,0-9.64,9.7q-3.42,6.39-3.41,15.55H10.21q0-23,10.33-39.63t29.19-25.57q18.85-8.94,44.21-8.94,26.21,0,45.44,8.36t29.72,23.49q10.5,15.14,10.5,35.47a64.16,64.16,0,0,1-5.22,25q-5.24,12.4-18.75,27.43T117.17,272L96.71,289v1.28h85.23v47.3Z"/><path class="cls-1" d="M303.39,343.56q-29.73-.12-51.35-13.75T218.69,290.5Q207,264.83,207.08,228.93t11.77-61.15q11.67-25.15,33.24-38.25t51.3-13.1q29.72,0,51.35,13.15t33.34,38.3q11.71,25.14,11.61,61.05,0,36.1-11.72,61.78T354.68,330Q333.11,343.56,303.39,343.56Zm0-48.16q15.33,0,25.19-16t9.75-50.44q0-22.49-4.47-36.76T321.5,171a26.77,26.77,0,0,0-18.11-6.87q-15.34,0-25,15.56t-9.91,49.22q-.1,22.9,4.37,37.66t12.41,21.78A26.61,26.61,0,0,0,303.39,295.4Z"/><path class="cls-1" d="M512.62,340.57q-25.78,0-45.76-8.89t-31.37-24.56a60.08,60.08,0,0,1-11.51-36h59.66a18.58,18.58,0,0,0,3.89,11.24,24.82,24.82,0,0,0,10.38,7.73A39,39,0,0,0,513,292.85a34,34,0,0,0,14.49-2.93,23.45,23.45,0,0,0,9.8-8.15,20.24,20.24,0,0,0,3.41-11.94,17.74,17.74,0,0,0-4-11.71,26.78,26.78,0,0,0-11.46-8,46.19,46.19,0,0,0-16.94-2.88H486.2V206.34h22.15A39.55,39.55,0,0,0,524,203.46a24.77,24.77,0,0,0,10.55-8,18.66,18.66,0,0,0,3.67-11.72,19.52,19.52,0,0,0-3.09-11.29,21.68,21.68,0,0,0-8.89-7.67A29.86,29.86,0,0,0,513,162a34.49,34.49,0,0,0-14.43,2.88,24,24,0,0,0-10,8,20.33,20.33,0,0,0-3.73,11.72H428.24q.11-20,11-35.37t30-24.08q19.07-8.73,43.78-8.73,24.18,0,42.78,8.2t29.08,22.53a53.51,53.51,0,0,1,10.39,32.76q.21,18.33-12.52,30t-32.23,13.85v1.71q26.43,2.86,39.74,16.14T603.38,275a53.18,53.18,0,0,1-11.45,34q-11.56,14.81-32.07,23.23T512.62,340.57Z"/><path class="cls-1" d="M717.16,340.57q-25.14,0-44.58-8.89T642,307.12q-11.13-15.66-11.34-36h57.52q.33,11.29,8.79,18a31.56,31.56,0,0,0,20.19,6.71,32.11,32.11,0,0,0,16-3.89,27.74,27.74,0,0,0,10.87-11,38.08,38.08,0,0,0,0-33.29,27.84,27.84,0,0,0-10.87-11,32.11,32.11,0,0,0-16-3.89,34.31,34.31,0,0,0-17.31,4.53,27.63,27.63,0,0,0-11.67,12.52l-52-10.23,8.52-120.17H791.31v47.3h-98L689,214.86h1.27Q695.43,205,708,198.4t29.19-6.55q19.5,0,34.78,9.06a65.77,65.77,0,0,1,24.19,25q8.88,15.93,8.79,36.7.09,22.8-10.82,40.43T763.5,330.61Q743.79,340.57,717.16,340.57Z"/><path class="cls-1" d="M61.31,37.19a8.88,8.88,0,0,0-3.05-6.39q-2.73-2.3-8.25-2.29a16.62,16.62,0,0,0-5.76.84A7,7,0,0,0,41,31.62a5.54,5.54,0,0,0-1.11,3.28,5.12,5.12,0,0,0,.55,2.72,6.19,6.19,0,0,0,2,2.17A15.54,15.54,0,0,0,46,41.53a38.45,38.45,0,0,0,5.16,1.39L58,44.4A51.54,51.54,0,0,1,70,48.29,28.47,28.47,0,0,1,78.06,54a20.58,20.58,0,0,1,4.65,7.31,26.09,26.09,0,0,1,1.54,8.85,23.7,23.7,0,0,1-4.14,14,25.29,25.29,0,0,1-11.69,8.72,49.73,49.73,0,0,1-18.25,3A51.36,51.36,0,0,1,31.1,92.61a26.44,26.44,0,0,1-12.61-10Q14,75.89,14,65.37H35.59a12.89,12.89,0,0,0,1.92,6.47,10.79,10.79,0,0,0,4.86,4,18.81,18.81,0,0,0,7.47,1.35,18,18,0,0,0,6.11-.9,8.26,8.26,0,0,0,3.72-2.5A5.85,5.85,0,0,0,61,70.12a5.31,5.31,0,0,0-1.24-3.38,10.41,10.41,0,0,0-4-2.62,42.89,42.89,0,0,0-7.41-2.19L40,60.13Q28.87,57.72,22.46,52T16.09,36.53a23.07,23.07,0,0,1,4.28-14,28.41,28.41,0,0,1,12-9.36A43.64,43.64,0,0,1,50,9.83a41.79,41.79,0,0,1,17.57,3.4A26.5,26.5,0,0,1,79,22.79a25.88,25.88,0,0,1,4.07,14.4Z"/><path class="cls-1" d="M174.2,52.92q0,14-5.45,23.61A36.35,36.35,0,0,1,154,91.07a45.55,45.55,0,0,1-41.34,0A36.61,36.61,0,0,1,98,76.45q-5.43-9.6-5.43-23.53T98,29.31A36.35,36.35,0,0,1,112.7,14.76a45.8,45.8,0,0,1,41.34,0,36.44,36.44,0,0,1,14.71,14.55Q174.2,38.91,174.2,52.92Zm-23.43,0a35.57,35.57,0,0,0-2-12.72,16.28,16.28,0,0,0-30.76,0,35.79,35.79,0,0,0-2,12.72,35.83,35.83,0,0,0,2,12.72,16.28,16.28,0,0,0,30.76,0A35.61,35.61,0,0,0,150.77,52.92Z"/><path class="cls-1" d="M234.32,11H257.1V64.72a28.71,28.71,0,0,1-17.29,27.34,49.47,49.47,0,0,1-37.93,0,28.65,28.65,0,0,1-17.2-27.34V11h22.78V62.75a14,14,0,0,0,1.71,6.94A12.25,12.25,0,0,0,214,74.46a14.9,14.9,0,0,0,13.9,0,12.24,12.24,0,0,0,4.75-4.77,13.85,13.85,0,0,0,1.72-6.94Z"/><path class="cls-1" d="M265.62,29.33V11h72.91V29.33H313.29V94.86H290.85V29.33Z"/><path class="cls-1" d="M347,94.86V11h22.78V43.74H400V11h22.78V94.86H400V62.09H369.82V94.86Z"/><path class="cls-1" d="M477.79,94.86,453.05,11h25.39l11.47,51.61h.66L504.17,11h20l13.6,51.77h.66L549.88,11h25.39L550.53,94.86H528.74L514.49,48h-.66L499.58,94.86Z"/><path class="cls-1" d="M582.65,94.86V11H643.1V29.33H605.42V43.74H640V62.09H605.42V76.51h37.52V94.86Z"/><path class="cls-1" d="M699.63,37.19a8.89,8.89,0,0,0-3.06-6.39q-2.72-2.3-8.25-2.29a16.52,16.52,0,0,0-5.75.84,7,7,0,0,0-3.3,2.27,5.61,5.61,0,0,0-1.11,3.28,5.13,5.13,0,0,0,.56,2.72,6.06,6.06,0,0,0,2,2.17,15.63,15.63,0,0,0,3.57,1.74,37.65,37.65,0,0,0,5.16,1.39l6.88,1.48a51.79,51.79,0,0,1,11.92,3.89A28.61,28.61,0,0,1,716.38,54,20.86,20.86,0,0,1,721,61.27a26.09,26.09,0,0,1,1.53,8.85,23.62,23.62,0,0,1-4.13,14,25.27,25.27,0,0,1-11.7,8.72,49.69,49.69,0,0,1-18.25,3,51.3,51.3,0,0,1-19.06-3.23,26.47,26.47,0,0,1-12.62-10q-4.49-6.75-4.52-17.27H673.9a12.8,12.8,0,0,0,1.93,6.47,10.71,10.71,0,0,0,4.85,4,18.83,18.83,0,0,0,7.48,1.35,17.89,17.89,0,0,0,6.1-.9,8.3,8.3,0,0,0,3.73-2.5,6,6,0,0,0,1.31-3.65,5.37,5.37,0,0,0-1.25-3.38,10.37,10.37,0,0,0-3.95-2.62,42.76,42.76,0,0,0-7.42-2.19l-8.35-1.8Q667.19,57.72,660.78,52t-6.37-15.51a23,23,0,0,1,4.28-14,28.41,28.41,0,0,1,12-9.36,43.62,43.62,0,0,1,17.63-3.36,41.79,41.79,0,0,1,17.57,3.4,26.5,26.5,0,0,1,11.45,9.56,26,26,0,0,1,4.08,14.4Z"/><path class="cls-1" d="M729,29.33V11h72.91V29.33H776.63V94.86H754.18V29.33Z"/></svg>